{"glyphs":{":":{"x_min":0,"x_max":206,"ha":206,"o":"m 46 462 l 160 462 l 160 348 l 46 348 z m 46 113 l 160 113 l 160 0 l 46 0 z"},"$":{"x_min":0,"x_max":394,"ha":394,"o":"m 41 548 q 41 594 65 619 q 89 644 133 644 l 157 644 l 157 720 l 236 720 l 236 644 l 260 644 q 304 644 328 619 q 353 593 353 548 l 353 536 l 238 476 l 238 538 l 155 538 l 155 384 l 353 487 l 353 148 q 353 103 329 78 q 304 53 260 53 l 236 53 l 236 -32 l 157 -32 l 157 53 l 133 53 q 89 53 65 78 q 41 103 41 148 l 41 163 l 155 222 l 155 159 l 238 159 l 238 313 l 41 210 z"},"?":{"x_min":0,"x_max":380,"ha":380,"o":"m 34 599 q 34 645 58 669 q 82 694 126 694 l 253 694 q 297 694 322 669 q 346 644 346 599 l 346 456 q 346 417 331 394 q 315 370 277 351 l 247 336 l 247 148 l 133 148 l 133 401 l 231 452 l 231 584 l 148 584 l 148 519 l 34 460 z m 133 113 l 247 113 l 247 0 l 133 0 z"},"<":{"x_min":0,"x_max":833,"ha":833,"o":"m 704 574 l 704 484 l 248 298 l 704 112 l 704 23 l 129 259 l 129 337 z"},"'":{"x_min":0,"x_max":172,"ha":172,"o":"m 44 694 l 128 694 l 128 422 l 44 422 z"},"=":{"x_min":0,"x_max":556,"ha":556,"o":"m 509 205 l 509 111 l 46 111 l 46 205 z m 509 396 l 509 302 l 46 302 l 46 396 z"},"a":{"x_min":0,"x_max":375,"ha":375,"o":"m 229 262 l 146 221 l 146 104 l 229 104 z m 37 460 q 37 505 62 531 q 86 556 130 556 l 245 556 q 289 556 313 531 q 338 505 338 460 l 338 0 l 227 0 l 227 56 q 220 29 202 15 q 184 0 158 0 l 123 0 q 77 0 57 22 q 37 44 37 95 l 37 274 l 229 370 l 229 454 l 146 454 l 146 405 l 37 349 z"},"L":{"x_min":0,"x_max":319,"ha":319,"o":"m 308 111 l 308 0 l 42 0 l 42 694 l 156 694 l 156 111 z"},"3":{"x_min":0,"x_max":395,"ha":395,"o":"m 354 369 l 354 94 q 354 50 329 25 q 305 0 261 0 l 134 0 q 91 0 66 25 q 42 50 42 94 l 42 153 l 156 212 l 156 110 l 240 110 l 240 340 l 157 297 l 157 421 l 240 463 l 240 584 l 156 584 l 156 539 l 42 481 l 42 600 q 42 645 66 669 q 91 694 134 694 l 261 694 q 305 694 329 669 q 354 644 354 600 l 354 453 q 354 418 342 398 q 331 378 305 369 z"},";":{"x_min":0,"x_max":206,"ha":206,"o":"m 46 462 l 160 462 l 160 348 l 46 348 z m 46 113 l 160 113 l 160 0 l 108 -95 l 80 -95 l 80 2 l 46 -14 z"},"J":{"x_min":0,"x_max":372,"ha":372,"o":"m 110 0 q 66 0 42 25 q 17 50 17 95 l 17 213 l 132 271 l 132 110 l 215 110 l 215 694 l 330 694 l 330 95 q 330 50 306 25 q 281 0 237 0 z"},"V":{"x_min":0,"x_max":363,"ha":363,"o":"m 116 0 l -7 694 l 108 694 l 182 251 l 256 694 l 370 694 l 248 0 z"},"\"":{"x_min":0,"x_max":331,"ha":331,"o":"m 207 694 l 292 694 l 292 422 l 207 422 z m 39 694 l 124 694 l 124 422 l 39 422 z"},"7":{"x_min":0,"x_max":340,"ha":340,"o":"m 215 289 l 215 0 l 102 0 l 102 303 l 194 583 l 12 583 l 12 694 l 327 694 l 327 625 z"},"S":{"x_min":0,"x_max":394,"ha":394,"o":"m 41 599 q 41 644 65 669 q 89 694 133 694 l 260 694 q 304 694 328 669 q 353 644 353 599 l 353 582 l 238 522 l 238 584 l 155 584 l 155 409 l 353 511 l 353 95 q 353 50 329 25 q 304 0 260 0 l 133 0 q 89 0 65 25 q 41 50 41 95 l 41 160 l 155 219 l 155 110 l 238 110 l 238 328 l 41 225 z"},"}":{"x_min":0,"x_max":500,"ha":500,"o":"m 74 721 l 96 721 q 152 721 184 716 q 215 710 237 697 q 265 681 276 650 q 287 620 287 550 l 287 429 q 287 359 312 330 q 338 302 400 302 q 403 302 410 302 q 417 303 421 303 l 421 216 q 417 216 410 216 q 403 217 400 217 q 338 217 313 188 q 287 159 287 89 l 287 -32 q 287 -102 276 -132 q 265 -162 237 -178 q 216 -191 184 -197 q 152 -202 96 -202 l 74 -202 l 74 -116 q 78 -116 85 -117 q 93 -117 96 -117 q 149 -117 168 -97 q 187 -76 187 -11 l 187 106 q 187 181 209 213 q 231 245 287 259 q 231 272 209 304 q 187 336 187 412 l 187 530 q 187 594 168 615 q 150 635 97 635 q 94 635 86 634 q 78 634 74 634 z"},"Z":{"x_min":0,"x_max":347,"ha":347,"o":"m 193 583 l 30 583 l 30 694 l 317 694 l 317 583 l 150 111 l 317 111 l 317 0 l 25 0 l 25 111 z"},"x":{"x_min":0,"x_max":336,"ha":336,"o":"m 3 556 l 115 556 l 168 415 l 221 556 l 333 556 l 225 287 l 340 0 l 226 0 l 168 154 l 110 0 l -5 0 l 111 287 z"},")":{"x_min":0,"x_max":280,"ha":280,"o":"m 228 599 l 228 -44 q 228 -89 204 -114 q 179 -139 135 -139 l 30 -139 l 30 -43 l 127 -43 l 127 598 l 30 598 l 30 694 l 135 694 q 179 694 204 669 q 228 644 228 599 z"},"&":{"x_min":0,"x_max":395,"ha":395,"o":"m 134 0 q 90 0 66 25 q 42 50 42 95 l 42 331 q 42 366 54 386 q 65 406 91 415 q 65 421 54 438 q 42 455 42 486 l 42 599 q 42 645 66 669 q 90 694 134 694 l 261 694 q 305 694 330 669 q 354 644 354 599 l 354 575 l 240 516 l 240 584 l 156 584 l 156 450 l 192 469 l 192 345 l 156 325 l 156 110 l 240 110 l 240 190 l 212 176 l 212 300 l 384 386 l 384 262 l 354 246 l 354 95 q 354 50 330 25 q 305 0 261 0 z"},"_":{"x_min":0,"x_max":500,"ha":500,"o":"m 0 -152 l 500 -152 l 500 -236 l 0 -236 z"},"v":{"x_min":0,"x_max":317,"ha":317,"o":"m 93 0 l -7 555 l 103 555 l 159 158 l 214 556 l 324 556 l 224 0 z"},"O":{"x_min":0,"x_max":394,"ha":394,"o":"m 41 599 q 41 644 65 669 q 89 694 133 694 l 260 694 q 304 694 328 669 q 353 644 353 599 l 353 95 q 353 50 329 25 q 304 0 260 0 l 133 0 q 89 0 65 25 q 41 50 41 95 z m 238 584 l 155 584 l 155 110 l 238 110 z"},"(":{"x_min":0,"x_max":280,"ha":280,"o":"m 52 599 q 52 644 76 669 q 101 694 145 694 l 250 694 l 250 598 l 153 598 l 153 -43 l 250 -43 l 250 -139 l 145 -139 q 101 -139 76 -114 q 52 -89 52 -44 z"},"C":{"x_min":0,"x_max":394,"ha":394,"o":"m 41 599 q 41 644 65 669 q 89 694 133 694 l 260 694 q 304 694 328 669 q 353 644 353 599 l 353 509 l 238 451 l 238 584 l 155 584 l 155 110 l 238 110 l 238 208 l 353 267 l 353 95 q 353 50 329 25 q 304 0 260 0 l 133 0 q 89 0 65 25 q 41 50 41 95 z"},"W":{"x_min":0,"x_max":591,"ha":591,"o":"m 352 694 l 352 111 l 435 111 l 435 694 l 550 694 l 550 97 q 550 47 525 24 q 501 0 450 0 l 361 0 q 330 0 313 18 q 296 35 296 67 q 296 35 279 18 q 261 0 230 0 l 134 0 q 90 0 66 25 q 42 50 42 95 l 42 694 l 156 694 l 156 111 l 240 111 l 240 694 z"},"A":{"x_min":0,"x_max":396,"ha":396,"o":"m 240 416 l 240 584 l 156 584 l 156 375 z m 354 0 l 240 0 l 240 294 l 156 251 l 156 0 l 42 0 l 42 599 q 42 644 66 669 q 90 694 134 694 l 261 694 q 305 694 329 669 q 354 644 354 599 z"},"f":{"x_min":0,"x_max":308,"ha":308,"o":"m 42 599 q 42 645 66 669 q 90 694 134 694 l 236 694 q 280 694 305 669 q 329 644 329 599 l 329 569 l 216 513 l 218 588 l 153 588 l 153 417 l 290 486 l 290 370 l 153 300 l 153 0 l 42 0 z"},"Q":{"x_min":0,"x_max":394,"ha":394,"o":"m 238 584 l 155 584 l 155 110 l 187 110 l 165 151 l 238 189 z m 41 599 q 41 644 65 669 q 89 694 133 694 l 260 694 q 304 694 328 669 q 353 644 353 599 l 353 95 q 353 78 351 65 q 348 53 344 47 l 372 -8 l 273 -59 l 243 0 l 133 0 q 89 0 65 25 q 41 50 41 95 z"},"w":{"x_min":0,"x_max":551,"ha":551,"o":"m 126 0 q 81 0 59 23 q 37 46 37 94 l 37 556 l 145 556 l 145 106 l 222 106 l 222 556 l 329 556 l 329 106 l 406 106 l 406 556 l 514 556 l 514 95 q 514 46 493 23 q 472 0 427 0 l 359 0 q 325 0 306 11 q 287 23 275 50 q 265 22 247 11 q 229 0 192 0 z"},"-":{"x_min":0,"x_max":291,"ha":291,"o":"m 46 281 l 244 380 l 244 278 l 46 178 z"},"E":{"x_min":0,"x_max":345,"ha":345,"o":"m 317 0 l 42 0 l 42 694 l 317 694 l 317 583 l 156 583 l 156 404 l 317 485 l 317 361 l 156 279 l 156 111 l 317 111 z"},"s":{"x_min":0,"x_max":375,"ha":375,"o":"m 338 456 l 227 400 l 227 449 l 148 449 l 148 317 l 338 411 l 338 95 q 338 50 313 25 q 289 0 245 0 l 130 0 q 86 0 62 25 q 37 50 37 95 l 37 111 l 148 167 l 148 106 l 227 106 l 227 255 l 37 158 l 37 460 q 37 505 62 531 q 86 556 130 556 l 245 556 q 289 556 313 531 q 338 506 338 461 z"},">":{"x_min":0,"x_max":833,"ha":833,"o":"m 129 574 l 704 337 l 704 259 l 129 23 l 129 112 l 585 298 l 129 484 z"},"l":{"x_min":0,"x_max":185,"ha":185,"o":"m 37 638 l 148 694 l 148 0 l 37 0 z"},"8":{"x_min":0,"x_max":395,"ha":395,"o":"m 241 110 l 241 312 l 155 269 l 155 110 z m 354 346 l 354 94 q 354 50 329 25 q 305 0 261 0 l 134 0 q 91 0 66 25 q 42 50 42 94 l 42 272 q 42 307 54 327 q 65 347 91 356 l 42 356 l 42 600 q 42 645 66 669 q 91 694 134 694 l 261 694 q 305 694 329 669 q 354 644 354 600 l 354 429 q 354 395 342 375 q 331 355 305 346 z m 241 430 l 241 584 l 155 584 l 155 388 z"},"\\":{"x_min":0,"x_max":285,"ha":285,"o":"m 310 -93 l 206 -93 l 0 694 l 104 694 z"},"e":{"x_min":0,"x_max":375,"ha":375,"o":"m 146 325 l 229 365 l 229 454 l 146 454 z m 37 460 q 37 505 62 531 q 86 556 130 556 l 245 556 q 289 556 313 531 q 338 505 338 460 l 338 319 l 146 222 l 146 104 l 229 104 l 229 185 l 338 242 l 338 95 q 338 50 313 25 q 289 0 245 0 l 130 0 q 86 0 62 25 q 37 50 37 95 z"},"b":{"x_min":0,"x_max":375,"ha":375,"o":"m 37 0 l 37 637 l 148 693 l 148 500 q 155 527 173 542 q 191 556 217 556 l 252 556 q 298 556 318 534 q 338 511 338 460 l 338 95 q 338 44 318 22 q 298 0 252 0 l 217 0 q 191 0 173 15 q 155 29 148 56 l 148 0 z m 227 446 l 148 446 l 148 106 l 227 106 z"},"%":{"x_min":0,"x_max":755,"ha":755,"o":"m 310 371 q 310 327 285 302 q 261 277 217 277 l 128 277 q 84 277 60 302 q 35 327 35 371 l 35 600 q 35 644 60 669 q 84 694 128 694 l 217 694 q 261 694 285 669 q 310 644 310 600 z m 209 598 l 135 598 l 135 373 l 209 373 z m 619 322 l 545 322 l 545 96 l 619 96 z m 720 94 q 720 50 695 25 q 670 0 627 0 l 537 0 q 494 0 469 25 q 444 50 444 94 l 444 323 q 444 368 469 393 q 494 418 537 418 l 627 418 q 670 418 695 393 q 720 368 720 323 z m 169 0 l 502 694 l 585 694 l 252 0 z"},"m":{"x_min":0,"x_max":551,"ha":551,"o":"m 212 556 l 250 556 q 279 556 297 544 q 314 532 324 506 q 334 531 353 543 q 371 556 396 556 l 434 556 q 474 556 494 532 q 514 507 514 460 l 514 0 l 406 0 l 406 449 l 330 449 l 329 0 l 222 0 l 222 449 l 145 449 l 145 0 l 37 0 l 37 556 l 145 556 l 145 500 q 152 527 169 542 q 187 556 212 556 z"},"#":{"x_min":0,"x_max":736,"ha":736,"o":"m 320 420 l 269 274 l 420 274 l 471 420 z m 331 694 l 419 694 l 350 499 l 497 499 l 566 694 l 654 694 l 585 499 l 718 499 l 689 420 l 557 420 l 506 274 l 644 274 l 614 196 l 477 196 l 407 0 l 319 0 l 389 196 l 242 196 l 171 0 l 84 0 l 154 196 l 19 196 l 48 274 l 183 274 l 234 420 l 93 420 l 121 499 l 261 499 z"},",":{"x_min":0,"x_max":197,"ha":197,"o":"m 42 113 l 155 113 l 155 0 l 103 -95 l 76 -95 l 76 2 l 42 -14 z"},"n":{"x_min":0,"x_max":375,"ha":375,"o":"m 37 556 l 148 556 l 148 500 q 155 527 173 542 q 190 556 216 556 l 255 556 q 296 556 317 532 q 338 507 338 460 l 338 0 l 227 0 l 227 449 l 148 449 l 148 0 l 37 0 z"},"h":{"x_min":0,"x_max":375,"ha":375,"o":"m 37 638 l 148 694 l 148 500 q 156 527 174 542 q 191 556 216 556 l 253 556 q 298 556 318 534 q 338 511 338 460 l 338 0 l 227 0 l 227 449 l 148 449 l 148 0 l 37 0 z"},"z":{"x_min":0,"x_max":308,"ha":308,"o":"m 23 0 l 23 106 l 166 449 l 23 449 l 23 556 l 285 556 l 285 449 l 142 106 l 285 106 l 285 0 z"},"B":{"x_min":0,"x_max":395,"ha":395,"o":"m 244 108 l 244 331 l 152 285 l 152 108 z m 354 369 l 354 96 q 354 47 329 24 q 304 0 252 0 l 42 0 l 42 694 l 261 694 q 305 694 330 669 q 354 644 354 599 l 354 453 q 354 418 342 398 q 331 378 305 369 z m 244 447 l 244 587 l 152 587 l 152 402 z"},"K":{"x_min":0,"x_max":400,"ha":400,"o":"m 155 0 l 42 0 l 42 694 l 155 694 l 155 439 l 269 694 l 389 694 l 257 403 l 422 0 l 303 0 l 195 292 l 155 198 z"},"R":{"x_min":0,"x_max":394,"ha":394,"o":"m 354 350 l 270 307 l 400 0 l 281 0 l 173 257 l 156 248 l 156 0 l 42 0 l 42 694 l 261 694 q 305 694 329 669 q 354 644 354 599 z m 240 414 l 240 584 l 156 584 l 156 372 z"},"T":{"x_min":0,"x_max":352,"ha":352,"o":"m 119 0 l 119 583 l 7 583 l 7 694 l 345 694 l 345 583 l 233 583 l 233 0 z"},"P":{"x_min":0,"x_max":385,"ha":385,"o":"m 240 405 l 240 584 l 156 584 l 156 363 z m 354 341 l 156 239 l 156 0 l 42 0 l 42 694 l 261 694 q 305 694 330 669 q 354 644 354 599 z"},"|":{"x_min":0,"x_max":500,"ha":500,"o":"m 207 764 l 294 764 l 294 -236 l 207 -236 z"},"t":{"x_min":0,"x_max":278,"ha":278,"o":"m 175 106 l 277 106 l 277 0 l 157 0 q 113 0 88 25 q 64 50 64 95 l 64 350 l 4 319 l 4 431 l 64 462 l 64 600 l 175 664 l 175 518 l 267 566 l 267 453 l 175 406 z"},"M":{"x_min":0,"x_max":591,"ha":591,"o":"m 352 0 l 240 0 l 240 583 l 156 583 l 156 0 l 42 0 l 42 599 q 42 644 66 669 q 90 694 134 694 l 230 694 q 261 694 279 676 q 296 659 296 627 q 296 659 313 677 q 330 694 361 694 l 457 694 q 500 694 525 669 q 550 644 550 599 l 550 0 l 435 0 l 435 583 l 352 583 z"},"g":{"x_min":0,"x_max":375,"ha":375,"o":"m 148 449 l 148 228 l 227 267 l 227 449 z m 338 -44 q 338 -89 313 -114 q 289 -139 245 -139 l 130 -139 q 86 -139 62 -114 q 37 -89 37 -44 l 37 -8 l 148 48 l 148 -32 l 227 -32 l 227 151 l 37 54 l 37 459 q 37 508 57 532 q 77 556 119 556 l 158 556 q 184 556 202 542 q 220 527 227 500 l 227 556 l 338 556 z"},"j":{"x_min":0,"x_max":190,"ha":190,"o":"m 42 545 l 42 638 l 153 694 l 153 601 z m 42 500 l 153 556 l 153 -59 q 153 -96 125 -118 q 98 -139 50 -139 l -19 -139 l -19 -32 l 42 -32 z"},"i":{"x_min":0,"x_max":185,"ha":185,"o":"m 37 545 l 37 638 l 148 694 l 148 601 z m 37 500 l 148 556 l 148 0 l 37 0 z"},"y":{"x_min":0,"x_max":375,"ha":375,"o":"m 338 -44 q 338 -89 313 -114 q 289 -139 245 -139 l 130 -139 q 86 -139 62 -114 q 37 -89 37 -44 l 37 -8 l 148 48 l 148 -32 l 227 -32 l 227 151 l 37 53 l 37 556 l 148 556 l 148 226 l 227 266 l 227 556 l 338 556 z"},"@":{"x_min":0,"x_max":1000,"ha":1000,"o":"m 573 138 q 546 96 511 76 q 475 56 425 56 q 351 56 311 98 q 272 141 272 220 q 272 334 339 413 q 407 492 502 492 q 545 492 575 475 q 604 458 623 423 l 650 475 l 725 475 l 653 189 q 652 187 652 183 q 649 169 649 165 q 649 146 662 135 q 675 124 696 124 q 721 124 748 139 q 776 154 800 180 q 835 217 854 267 q 872 316 872 372 q 872 496 781 573 q 689 650 542 650 q 475 650 417 635 q 359 620 312 589 q 224 534 176 447 q 128 360 128 254 q 128 102 230 10 q 333 -81 503 -81 q 584 -81 661 -57 q 738 -33 803 12 l 836 -36 q 763 -91 680 -119 q 598 -147 507 -147 q 413 -147 335 -124 q 258 -100 198 -54 q 123 3 85 80 q 48 157 48 255 q 48 335 73 408 q 99 480 148 541 q 220 628 321 674 q 421 719 545 719 q 626 719 699 697 q 771 675 823 635 q 888 585 920 520 q 952 455 952 373 q 952 294 920 226 q 889 157 830 110 q 796 83 757 69 q 717 55 675 55 q 623 55 598 75 q 573 95 573 136 z m 602 345 q 595 386 572 409 q 549 431 512 431 q 450 431 406 368 q 362 306 362 217 q 362 169 384 143 q 406 117 447 117 q 491 117 527 150 q 562 182 575 234 z"},".":{"x_min":0,"x_max":197,"ha":197,"o":"m 42 113 l 155 113 l 155 0 l 42 0 z"},"p":{"x_min":0,"x_max":375,"ha":375,"o":"m 227 109 l 227 449 l 148 449 l 148 109 z m 37 556 l 148 556 l 148 500 q 155 527 173 542 q 191 556 217 556 l 252 556 q 298 556 318 534 q 338 511 338 460 l 338 95 q 338 43 318 21 q 298 0 252 0 l 217 0 q 190 0 173 14 q 156 28 148 56 l 148 -139 l 37 -139 z"},"X":{"x_min":0,"x_max":352,"ha":352,"o":"m 105 357 l 8 694 l 125 694 l 175 516 l 227 694 l 344 694 l 247 357 l 350 0 l 233 0 l 176 198 l 119 0 l 2 0 z"},"*":{"x_min":0,"x_max":301,"ha":301,"o":"m 30 605 l 30 667 l 123 620 l 123 694 l 178 694 l 178 620 l 271 667 l 271 605 l 183 562 l 271 520 l 271 458 l 178 505 l 178 431 l 123 431 l 123 505 l 30 458 l 30 520 l 118 562 z"},"Y":{"x_min":0,"x_max":394,"ha":394,"o":"m 41 694 l 155 694 l 155 395 l 238 438 l 238 694 l 353 694 l 353 100 q 353 49 329 25 q 306 0 257 0 l 133 0 q 89 0 65 25 q 41 50 41 95 l 41 120 l 155 179 l 155 110 l 238 110 l 238 314 l 41 211 z"},"c":{"x_min":0,"x_max":366,"ha":366,"o":"m 37 460 q 37 505 62 531 q 86 556 130 556 l 245 556 q 289 556 313 531 q 338 505 338 460 l 338 400 l 227 344 l 227 449 l 148 449 l 148 106 l 227 106 l 227 180 l 338 236 l 338 95 q 338 50 313 25 q 289 0 245 0 l 130 0 q 86 0 62 25 q 37 50 37 95 z"},"!":{"x_min":0,"x_max":215,"ha":215,"o":"m 51 113 l 164 113 l 164 0 l 51 0 z m 51 148 l 51 694 l 164 694 l 164 148 z"},"/":{"x_min":0,"x_max":285,"ha":285,"o":"m -23 -93 l 183 694 l 287 694 l 81 -93 z"},"[":{"x_min":0,"x_max":280,"ha":280,"o":"m 52 694 l 250 694 l 250 598 l 155 598 l 155 -43 l 250 -43 l 250 -139 l 52 -139 z"},"6":{"x_min":0,"x_max":394,"ha":394,"o":"m 155 254 l 155 110 l 238 110 l 238 297 z m 133 0 q 89 0 65 25 q 41 50 41 95 l 41 599 q 41 645 65 669 q 89 694 133 694 l 260 694 q 304 694 329 669 q 353 644 353 599 l 353 548 l 238 489 l 238 584 l 155 584 l 155 374 l 353 476 l 353 95 q 353 50 329 25 q 304 0 260 0 z"},"r":{"x_min":0,"x_max":317,"ha":317,"o":"m 37 556 l 148 556 l 148 500 q 156 527 173 542 q 190 556 216 556 l 233 556 q 274 556 295 532 q 316 508 316 460 l 316 409 l 205 353 l 205 449 l 148 449 l 148 0 l 37 0 z"},"2":{"x_min":0,"x_max":395,"ha":395,"o":"m 354 0 l 42 0 l 42 272 q 42 307 54 327 q 67 347 98 362 l 240 433 l 240 584 l 156 584 l 156 530 l 42 473 l 42 600 q 42 645 66 669 q 91 694 134 694 l 261 694 q 305 694 329 669 q 354 644 354 600 l 354 429 q 354 393 341 373 q 327 353 293 337 l 156 267 l 156 110 l 354 110 z"},"{":{"x_min":0,"x_max":500,"ha":500,"o":"m 427 721 l 427 634 q 423 634 415 634 q 407 635 404 635 q 351 635 332 615 q 313 594 313 530 l 313 412 q 313 336 292 304 q 270 272 214 259 q 270 246 291 214 q 313 182 313 106 l 313 -11 q 313 -76 332 -96 q 352 -117 405 -117 q 408 -117 416 -117 q 423 -116 427 -116 l 427 -202 l 396 -202 q 346 -202 315 -196 q 284 -190 263 -178 q 235 -162 224 -131 q 213 -101 213 -32 l 213 89 q 213 159 187 188 q 162 217 100 217 q 97 217 90 216 q 83 216 79 216 l 79 303 q 83 303 90 302 q 97 302 100 302 q 162 302 187 331 q 213 359 213 429 l 213 550 q 213 621 224 651 q 235 681 263 697 q 285 710 316 716 q 348 721 405 721 z"},"9":{"x_min":0,"x_max":394,"ha":394,"o":"m 238 442 l 238 584 l 155 584 l 155 399 z m 41 600 q 41 645 65 669 q 90 694 133 694 l 260 694 q 304 694 328 669 q 353 644 353 600 l 353 94 q 353 50 328 25 q 304 0 260 0 l 133 0 q 90 0 65 25 q 41 50 41 94 l 41 146 l 155 205 l 155 110 l 238 110 l 238 318 l 41 216 z"}," ":{"x_min":0,"x_max":198,"ha":198,"o":""},"I":{"x_min":0,"x_max":198,"ha":198,"o":"m 156 0 l 42 0 l 42 694 l 156 694 z"},"H":{"x_min":0,"x_max":396,"ha":396,"o":"m 354 694 l 354 0 l 241 0 l 241 322 l 155 278 l 155 0 l 42 0 l 42 694 l 155 694 l 155 403 l 241 446 l 241 694 z"},"4":{"x_min":0,"x_max":396,"ha":396,"o":"m 354 568 l 354 0 l 241 0 l 241 250 l 42 145 l 42 694 l 155 694 l 155 331 l 241 375 l 241 508 z"},"~":{"x_min":0,"x_max":833,"ha":833,"o":"m 747 383 l 747 293 q 697 258 651 241 q 604 224 561 224 q 540 224 516 228 q 492 232 468 241 q 456 245 431 254 q 327 290 275 290 q 235 290 190 271 q 145 253 87 212 l 87 303 q 139 338 186 356 q 232 373 276 373 q 306 373 337 367 q 368 361 419 344 q 426 342 440 336 q 520 308 562 308 q 604 308 648 326 q 693 344 747 383 z"},"D":{"x_min":0,"x_max":395,"ha":395,"o":"m 261 694 q 305 694 329 669 q 354 644 354 599 l 354 95 q 354 50 330 25 q 305 0 261 0 l 42 0 l 42 694 z m 240 584 l 156 584 l 156 110 l 240 110 z"},"^":{"x_min":0,"x_max":1000,"ha":1000,"o":"m 447 713 l 553 713 l 795 439 l 694 439 l 500 633 l 305 439 l 204 439 z"},"0":{"x_min":0,"x_max":394,"ha":394,"o":"m 353 94 q 353 50 328 25 q 304 0 260 0 l 133 0 q 90 0 65 25 q 41 50 41 94 l 41 600 q 41 645 65 669 q 90 694 133 694 l 260 694 q 304 694 328 669 q 353 644 353 600 z m 238 584 l 155 584 l 155 110 l 238 110 z"},"F":{"x_min":0,"x_max":333,"ha":333,"o":"m 42 0 l 42 694 l 317 694 l 317 583 l 156 583 l 156 404 l 317 485 l 317 361 l 156 279 l 156 0 z"},"`":{"x_min":0,"x_max":500,"ha":500,"o":"m 302 592 l 240 592 l 126 724 l 228 724 z"},"k":{"x_min":0,"x_max":356,"ha":356,"o":"m 37 638 l 146 694 l 146 354 l 244 556 l 369 556 l 230 313 l 372 0 l 249 0 l 146 247 l 146 0 l 37 0 z"},"u":{"x_min":0,"x_max":375,"ha":375,"o":"m 338 0 l 227 0 l 227 56 q 219 26 203 13 q 187 0 158 0 l 120 0 q 79 0 58 24 q 37 47 37 95 l 37 556 l 148 556 l 148 106 l 227 106 l 227 556 l 338 556 z"},"]":{"x_min":0,"x_max":280,"ha":280,"o":"m 228 694 l 228 -139 l 30 -139 l 30 -43 l 125 -43 l 125 598 l 30 598 l 30 694 z"},"U":{"x_min":0,"x_max":396,"ha":396,"o":"m 42 694 l 156 694 l 156 111 l 240 111 l 240 694 l 354 694 l 354 95 q 354 50 330 25 q 305 0 261 0 l 134 0 q 90 0 66 25 q 42 50 42 95 z"},"o":{"x_min":0,"x_max":375,"ha":375,"o":"m 37 460 q 37 505 62 531 q 86 556 130 556 l 245 556 q 289 556 313 531 q 338 505 338 460 l 338 96 q 338 48 314 24 q 290 0 243 0 l 130 0 q 86 0 62 25 q 37 50 37 95 z m 227 449 l 148 449 l 148 106 l 227 106 z"},"N":{"x_min":0,"x_max":396,"ha":396,"o":"m 156 0 l 43 0 l 43 694 l 156 694 l 156 639 q 161 667 177 680 q 194 694 222 694 l 261 694 q 305 694 329 669 q 354 644 354 599 l 354 0 l 240 0 l 240 583 l 156 583 z"},"+":{"x_min":0,"x_max":556,"ha":556,"o":"m 326 504 l 326 299 l 509 299 l 509 204 l 326 204 l 326 -1 l 229 -1 l 229 204 l 46 204 l 46 299 l 229 299 l 229 504 z"},"G":{"x_min":0,"x_max":395,"ha":395,"o":"m 41 599 q 41 644 65 669 q 89 694 133 694 l 260 694 q 304 694 328 669 q 353 644 353 599 l 353 500 l 238 442 l 238 584 l 155 584 l 155 110 l 238 110 l 238 266 l 192 242 l 192 367 l 353 448 l 353 0 l 133 0 q 89 0 65 25 q 41 50 41 95 z"},"q":{"x_min":0,"x_max":375,"ha":375,"o":"m 338 556 l 338 -139 l 227 -139 l 227 56 q 219 26 201 13 q 184 0 151 0 l 123 0 q 77 0 57 22 q 37 44 37 95 l 37 460 q 37 511 57 534 q 77 556 123 556 l 158 556 q 184 556 202 542 q 220 527 227 500 l 227 556 z m 148 109 l 227 109 l 227 449 l 148 449 z"},"d":{"x_min":0,"x_max":375,"ha":375,"o":"m 338 0 l 227 0 l 227 56 q 220 29 202 15 q 184 0 158 0 l 123 0 q 77 0 57 22 q 37 44 37 95 l 37 460 q 37 511 57 534 q 77 556 123 556 l 158 556 q 184 556 202 542 q 220 527 227 500 l 227 638 l 338 694 z m 148 446 l 148 106 l 227 106 l 227 446 z"},"1":{"x_min":0,"x_max":264,"ha":264,"o":"m 109 554 l 23 510 l 23 635 l 141 694 l 223 694 l 223 0 l 109 0 z"},"5":{"x_min":0,"x_max":394,"ha":394,"o":"m 41 694 l 353 694 l 353 583 l 155 583 l 155 402 l 353 503 l 353 95 q 353 47 329 23 q 305 0 255 0 l 133 0 q 89 0 65 25 q 41 50 41 95 l 41 120 l 155 179 l 155 110 l 238 110 l 238 328 l 41 223 z"}}}
